<svg height="512" viewBox="0 0 64 64" width="512" xmlns="http://www.w3.org/2000/svg"><g id="Filled_outline" data-name="Filled outline"><path d="m11 39h38v22h-38z" fill="#87cee9"/><path d="m5 39h6v4h-6z" fill="#394d5c"/><path d="m49 39h6v4h-6z" fill="#394d5c"/><path d="m47 6-11-3h-17a4.89 4.89 0 0 0 -4 3l-2 4a2.263 2.263 0 0 0 1.954 3h1.046l-.051.154a2.162 2.162 0 0 0 2.051 2.846h3v4a4 4 0 0 0 4 4h1a2 2 0 0 0 2-2 2 2 0 0 0 -2-2h-1v-5h11v5h-1a2 2 0 0 0 -2 2 2 2 0 0 0 2 2h4l3-4 5-2h12v-12z" fill="#ffd782"/><circle cx="24" cy="30" fill="#55b56a" r="2"/><circle cx="35" cy="33" fill="#55b56a" r="2"/><path d="m25 39v8a2 2 0 0 0 4 0 2 2 0 0 1 4 0v5a2 2 0 0 0 4 0v-7a2 2 0 0 1 4 0v2a2 2 0 0 0 4 0v-8z" fill="#f4fd53"/><path d="m55 38h-50a1 1 0 0 0 -1 1v4a1 1 0 0 0 1 1h5v17a1 1 0 0 0 1 1h38a1 1 0 0 0 1-1v-17h5a1 1 0 0 0 1-1v-4a1 1 0 0 0 -1-1zm-45 4h-4v-2h4zm16-2h18v7a1 1 0 0 1 -2 0v-2a3 3 0 0 0 -6 0v7a1 1 0 0 1 -2 0v-5a3 3 0 0 0 -6 0 1 1 0 0 1 -2 0zm22 20h-36v-20h12v7a3 3 0 0 0 6 0 1 1 0 0 1 2 0v5a3 3 0 0 0 6 0v-7a1 1 0 0 1 2 0v2a3 3 0 0 0 6 0v-7h2zm6-18h-4v-2h4z"/><path d="m59 5h-11.866l-10.871-2.965a1.016 1.016 0 0 0 -.263-.035h-17a5.814 5.814 0 0 0 -4.895 3.553l-2.034 4.076a3.2 3.2 0 0 0 .382 2.972 3.072 3.072 0 0 0 2.385 1.399 3.171 3.171 0 0 0 3.162 3h2v3a5.006 5.006 0 0 0 5 5h1a3 3 0 0 0 0-6v-3h9v3a3 3 0 0 0 0 6h4a1 1 0 0 0 .8-.4l2.832-3.776 4.56-1.824h11.808a1 1 0 0 0 1-1v-12a1 1 0 0 0 -1-1zm-1 12h-11a1.012 1.012 0 0 0 -.372.071l-5 2a1.006 1.006 0 0 0 -.428.329l-2.7 3.6h-3.5a1 1 0 0 1 0-2h1a1 1 0 0 0 1-1v-5a1 1 0 0 0 -1-1h-11a1 1 0 0 0 -1 1v5a1 1 0 0 0 1 1h1a1 1 0 0 1 0 2h-1a3 3 0 0 1 -3-3v-7a1 1 0 0 1 1-1h13v-2h-13a3 3 0 0 0 -3 3v2h-2a1.161 1.161 0 0 1 -1.1-1.53l2.718-5.47h10.382v-2h-11a1 1 0 0 0 -.895.553l-2.723 5.447h-.428a1.07 1.07 0 0 1 -.845-.521 1.235 1.235 0 0 1 -.214-1.032l2.034-4.076a3.94 3.94 0 0 1 3.071-2.371h16.866l10.871 2.965a1.016 1.016 0 0 0 .263.035h11z"/><path d="m30 26h2v2h-2z"/><path d="m28 33h2v2h-2z"/><path d="m27 30a3 3 0 1 0 -3 3 3 3 0 0 0 3-3zm-4 0a1 1 0 1 1 1 1 1 1 0 0 1 -1-1z"/><path d="m35 36a3 3 0 1 0 -3-3 3 3 0 0 0 3 3zm0-4a1 1 0 1 1 -1 1 1 1 0 0 1 1-1z"/><path d="m16 52h-2v5a1 1 0 0 0 1 1h3v-2h-2z"/><path d="m40 56h2v2h-2z"/><path d="m44 56h2v2h-2z"/></g></svg>